<mxfile host="65bd71144e">
    <diagram id="Ocl2nRzZFUGgDN79XYC2" name="第 1 页">
        <mxGraphModel dx="746" dy="568" grid="1" gridSize="10" guides="1" tooltips="1" connect="1" arrows="1" fold="1" page="1" pageScale="1" pageWidth="827" pageHeight="1169" background="#ffffff" math="0" shadow="0">
            <root>
                <mxCell id="0"/>
                <mxCell id="1" parent="0"/>
                <mxCell id="2" value="渲染管线" style="swimlane;whiteSpace=wrap;html=1;" parent="1" vertex="1">
                    <mxGeometry x="60" y="210" width="1030" height="100" as="geometry"/>
                </mxCell>
                <mxCell id="3" value="顶点着色器" style="rounded=0;whiteSpace=wrap;html=1;" parent="2" vertex="1">
                    <mxGeometry y="40" width="120" height="60" as="geometry"/>
                </mxCell>
                <mxCell id="4" value="曲面细分" style="rounded=0;whiteSpace=wrap;html=1;" parent="2" vertex="1">
                    <mxGeometry x="130" y="40" width="120" height="60" as="geometry"/>
                </mxCell>
                <mxCell id="5" value="几何着色器" style="rounded=0;whiteSpace=wrap;html=1;" parent="2" vertex="1">
                    <mxGeometry x="260" y="40" width="120" height="60" as="geometry"/>
                </mxCell>
                <mxCell id="6" value="光栅化" style="rounded=0;whiteSpace=wrap;html=1;" parent="2" vertex="1">
                    <mxGeometry x="390" y="40" width="120" height="60" as="geometry"/>
                </mxCell>
                <mxCell id="7" value="片元着色器" style="rounded=0;whiteSpace=wrap;html=1;" parent="2" vertex="1">
                    <mxGeometry x="520" y="40" width="120" height="60" as="geometry"/>
                </mxCell>
                <mxCell id="8" value="透明测试" style="rounded=0;whiteSpace=wrap;html=1;" parent="2" vertex="1">
                    <mxGeometry x="650" y="40" width="120" height="60" as="geometry"/>
                </mxCell>
                <mxCell id="9" value="模板测试" style="rounded=0;whiteSpace=wrap;html=1;" parent="2" vertex="1">
                    <mxGeometry x="780" y="40" width="120" height="60" as="geometry"/>
                </mxCell>
                <mxCell id="10" value="深度测试" style="rounded=0;whiteSpace=wrap;html=1;" parent="2" vertex="1">
                    <mxGeometry x="910" y="40" width="120" height="60" as="geometry"/>
                </mxCell>
            </root>
        </mxGraphModel>
    </diagram>
</mxfile>